<?xml version="1.0" encoding="iso-8859-1"?>
<!-- Generator: Adobe Illustrator 17.0.0, SVG Export Plug-In . SVG Version: 6.00 Build 0)  -->
<!DOCTYPE svg PUBLIC "-//W3C//DTD SVG 1.1//EN" "http://www.w3.org/Graphics/SVG/1.1/DTD/svg11.dtd">
<svg version="1.1" id="&#x30EC;&#x30A4;&#x30E4;&#x30FC;_1"
	 xmlns="http://www.w3.org/2000/svg" xmlns:xlink="http://www.w3.org/1999/xlink" x="0px" y="0px" width="101.794px"
	 height="75.441px" viewBox="0 0 101.794 75.441" style="enable-background:new 0 0 101.794 75.441;" xml:space="preserve">
<ellipse style="fill:#FFFFFF;" cx="38.823" cy="38.307" rx="33.549" ry="33.482"/>
<g>
	<path style="fill:#33485C;" d="M37.837,0C28.989,0,4.896,4.344,0,4.344c0,0,15.734,4.164,13.466,6.432
		c-6.62,6.62-11.42,18.194-11.42,25.909c0,20.261,16.024,36.686,35.791,36.686c19.767,0,35.791-16.425,35.791-36.686
		C73.627,16.425,57.604,0,37.837,0z M37.837,68.406c-15.903,0-28.794-13.708-28.794-30.617S21.934,7.171,37.837,7.171
		s28.794,13.708,28.794,30.617S53.739,68.406,37.837,68.406z"/>
	<ellipse style="fill:#33485C;" cx="56.201" cy="38.307" rx="4.553" ry="7.77"/>
	<ellipse style="fill:#33485C;" cx="38.823" cy="38.307" rx="7.447" ry="11.894"/>
</g>
<path style="fill:#33485C;" d="M61.434,72.085c0,0-0.001,2.152,3.251,3.173c2.256,0.708,3.775-0.878,3.775-0.878l17.866-41.059
	c0,0,10.013,2.627,14.379-7.568c2.98-6.96-1.101-13.281-1.101-13.281l-4.414,10.919l-8.872,1.348l-4.608-7.022l5.262-10.653
	c0,0-8.346,1.024-11.317,7.963c-3.124,7.297,1.004,12.394,4.428,15.698C80.918,31.531,61.434,72.085,61.434,72.085z"/>
</svg>
