<?xml version="1.0" encoding="iso-8859-1"?>
<!-- Generator: Adobe Illustrator 17.0.0, SVG Export Plug-In . SVG Version: 6.00 Build 0)  -->
<!DOCTYPE svg PUBLIC "-//W3C//DTD SVG 1.1//EN" "http://www.w3.org/Graphics/SVG/1.1/DTD/svg11.dtd">
<svg version="1.1" id="&#x30EC;&#x30A4;&#x30E4;&#x30FC;_1"
	 xmlns="http://www.w3.org/2000/svg" xmlns:xlink="http://www.w3.org/1999/xlink" x="0px" y="0px" width="111.517px"
	 height="80.682px" viewBox="0 0 111.517 80.682" style="enable-background:new 0 0 111.517 80.682;" xml:space="preserve">
<ellipse style="fill:#FFFFFF;" cx="76.713" cy="38.307" rx="33.549" ry="33.482"/>
<ellipse style="fill:#FFFFFF;" cx="39.449" cy="57.695" rx="21.994" ry="21.95"/>
<g>
	<path style="fill:#415E6F;" d="M38.802,32.582c-5.801,0-21.595,2.848-24.805,2.848c0,0,10.315,2.73,8.828,4.217
		c-4.34,4.34-7.487,11.928-7.487,16.985c0,13.283,10.505,24.05,23.464,24.05c12.959,0,23.464-10.768,23.464-24.05
		C62.266,43.349,51.761,32.582,38.802,32.582z M38.802,77.427c-10.425,0-18.877-8.987-18.877-20.072s8.451-20.072,18.877-20.072
		s18.877,8.987,18.877,20.072S49.228,77.427,38.802,77.427z"/>
	<ellipse style="fill:#415E6F;" cx="50.841" cy="57.695" rx="2.985" ry="5.094"/>
	<ellipse style="fill:#415E6F;" cx="39.449" cy="57.695" rx="4.882" ry="7.797"/>
</g>
<ellipse style="fill:#FFFFFF;" cx="57.514" cy="46.418" rx="29.331" ry="29.273"/>
<g>
	<path style="fill:#3C5866;" d="M56.652,12.927c-7.736,0-28.8,3.798-33.08,3.798c0,0,13.756,3.641,11.773,5.624
		C29.557,28.136,25.36,38.255,25.36,45c0,17.714,14.01,32.074,31.291,32.074c17.282,0,31.291-14.36,31.291-32.074
		C87.943,27.286,73.934,12.927,56.652,12.927z M56.652,72.733c-13.903,0-25.174-11.985-25.174-26.768s11.271-26.768,25.174-26.768
		s25.174,11.985,25.174,26.768S70.555,72.733,56.652,72.733z"/>
	<ellipse style="fill:#3C5866;" cx="72.707" cy="46.418" rx="3.98" ry="6.793"/>
	<ellipse style="fill:#3C5866;" cx="57.514" cy="46.418" rx="6.511" ry="10.399"/>
</g>
<ellipse style="fill:#FFFFFF;" cx="76.494" cy="36.361" rx="34.253" ry="34.185"/>
<g>
	<path style="fill:#33485C;" d="M75.727,0C66.879,0,42.786,4.344,37.89,4.344c0,0,15.734,4.164,13.466,6.432
		c-6.62,6.62-11.42,18.194-11.42,25.909c0,20.261,16.024,36.686,35.791,36.686c19.767,0,35.791-16.425,35.791-36.686
		C111.517,16.425,95.494,0,75.727,0z M75.727,68.406c-15.903,0-28.794-13.708-28.794-30.617S59.824,7.171,75.727,7.171
		s28.794,13.708,28.794,30.617S91.629,68.406,75.727,68.406z"/>
	<ellipse style="fill:#33485C;" cx="94.09" cy="38.307" rx="4.553" ry="7.77"/>
	<ellipse style="fill:#33485C;" cx="76.713" cy="38.307" rx="7.447" ry="11.894"/>
</g>
<path style="fill:#FFFFFF;" d="M4.306,77.074"/>
<path style="fill:#33485C;stroke:#33485C;stroke-miterlimit:10;" d="M0.32,62.874c14.26-11.89,22.819-24.227,39.129-32.911"/>
<path style="fill:#33485C;stroke:#33485C;stroke-miterlimit:10;" d="M4.007,70.627c14.232-6.596,24.173-14.906,39.129-18.338"/>
<path style="fill:#33485C;stroke:#33485C;stroke-miterlimit:10;" d="M7.917,77.251c19.412-2.434,35.804-8.331,53.526-6.921"/>
</svg>
