<?xml version="1.0" encoding="iso-8859-1"?>
<!-- Generator: Adobe Illustrator 17.0.0, SVG Export Plug-In . SVG Version: 6.00 Build 0)  -->
<!DOCTYPE svg PUBLIC "-//W3C//DTD SVG 1.1//EN" "http://www.w3.org/Graphics/SVG/1.1/DTD/svg11.dtd">
<svg version="1.1" id="&#x30EC;&#x30A4;&#x30E4;&#x30FC;_1"
	 xmlns="http://www.w3.org/2000/svg" xmlns:xlink="http://www.w3.org/1999/xlink" x="0px" y="0px" width="345.466px"
	 height="82.037px" viewBox="0 0 345.466 82.037" style="enable-background:new 0 0 345.466 82.037;" xml:space="preserve">
<g id="&#x80CC;&#x666F;_1_" style="opacity:0.502;">
	<g>
		<path style="fill-rule:evenodd;clip-rule:evenodd;fill:#040000;" d="M299.89,0H2.279C1.02,0,0,1.02,0,2.279v77.479
			c0,1.259,1.02,2.279,2.279,2.279h340.908c1.259,0,2.279-1.02,2.279-2.279V45.576C345.466,20.405,325.061,0,299.89,0z"/>
	</g>
</g>
<image style="overflow:visible;" width="96" height="96" id="&#x30A4;&#x30E9;&#x30B9;&#x30C8;_xA0_&#x753B;&#x50CF;_1_" xlink:href="983F4DF92F22AE71.png"  transform="matrix(0.4558 0 0 0.4558 6.5067 7.2661)">
</image>
<g>
	<path style="fill:#FFFFFF;" d="M65.405,28.065c-0.456-0.296-1.299-0.729-2.415-0.729c-1.367,0-2.096,0.843-2.096,1.845
		c0,1.071,0.706,1.572,2.301,2.256c2.005,0.82,3.167,1.868,3.167,3.736c0,2.21-1.687,3.668-4.397,3.668
		c-1.229,0-2.415-0.342-3.258-0.844l0.524-1.458c0.66,0.388,1.731,0.844,2.802,0.844c1.663,0,2.483-0.889,2.483-2.005
		c0-1.162-0.66-1.8-2.301-2.461c-2.096-0.843-3.167-2.005-3.167-3.508c0-1.937,1.55-3.531,4.056-3.531
		c1.185,0,2.187,0.342,2.848,0.752L65.405,28.065z"/>
	<path style="fill:#FFFFFF;" d="M71.035,28.27c0.865-1.526,2.301-2.392,4.237-2.392c2.938,0,5.058,2.528,5.058,6.333
		c0,4.557-2.666,6.652-5.399,6.652c-1.641,0-3.007-0.752-3.736-1.982h-0.046v6.789h-1.891V30.162c0-1.618-0.046-2.871-0.091-4.01
		h1.708l0.114,2.118H71.035z M71.148,33.647c0,2.415,1.8,3.69,3.486,3.69c2.438,0,3.781-2.096,3.781-5.058
		c0-2.574-1.299-4.853-3.713-4.853c-2.119,0-3.555,2.051-3.555,3.851V33.647z"/>
	<path style="fill:#FFFFFF;" d="M93.114,38.591h-1.892v-7.336c0-2.027-0.729-3.781-2.87-3.781c-1.458,0-3.28,1.207-3.28,3.485v7.632
		h-1.891V20.366h1.891v7.723h0.046c0.819-1.367,2.323-2.21,3.85-2.21s4.146,0.934,4.146,5.148V38.591z"/>
	<path style="fill:#FFFFFF;" d="M105.578,38.066c-0.706,0.342-2.005,0.775-3.896,0.775c-3.622,0-5.787-2.552-5.787-6.266
		c0-3.896,2.188-6.697,5.536-6.697c3.827,0,4.807,3.508,4.807,5.673c0,0.433-0.022,0.751-0.045,1.048h-8.452
		c0.022,3.439,1.981,4.738,4.215,4.738c1.549,0,2.482-0.319,3.258-0.638L105.578,38.066z M104.37,31.186
		c0.023-1.686-0.683-3.872-3.121-3.872c-2.277,0-3.28,2.164-3.462,3.872H104.37z"/>
	<path style="fill:#FFFFFF;" d="M114.74,27.769c-0.205-0.022-0.41-0.046-0.684-0.046c-2.051,0-3.099,2.028-3.099,4.124v6.743h-1.891
		v-8.702c0-1.321-0.022-2.529-0.091-3.714h1.663l0.091,2.393h0.068c0.547-1.55,1.846-2.666,3.372-2.666
		c0.205,0,0.364,0.046,0.569,0.068V27.769z"/>
	<path style="fill:#FFFFFF;" d="M127.499,32.28c0,4.625-3.053,6.584-5.81,6.584c-3.189,0-5.649-2.393-5.649-6.401
		c0-4.237,2.643-6.584,5.809-6.584C125.243,25.879,127.499,28.475,127.499,32.28z M121.781,27.359c-2.688,0-3.805,2.643-3.805,5.035
		c0,2.756,1.526,4.989,3.76,4.989c2.255,0,3.827-2.233,3.827-5.035C125.563,30.138,124.492,27.359,121.781,27.359z"/>
</g>
<g>
	<path style="fill:#FFFFFF;" d="M19.802,75.903H17.91v-8.292H9.618v8.292H7.728V58.567h1.891v7.404h8.292v-7.404h1.892V75.903z"/>
	<path style="fill:#FFFFFF;" d="M23.679,58.772c1.003-0.182,2.324-0.342,3.941-0.342c5.604,0,6.06,3.6,6.06,4.967
		c0,4.078-3.258,5.536-6.333,5.536c-0.661,0-1.253-0.023-1.777-0.16v7.131h-1.891V58.772z M25.57,67.201
		c0.479,0.137,1.094,0.182,1.823,0.182c2.733,0,4.396-1.366,4.396-3.85c0-2.483-1.777-3.577-4.146-3.577
		c-0.957,0-1.663,0.092-2.073,0.183V67.201z"/>
</g>
<g id="HP&#x80CC;&#x666F;">
	<g>
		<path style="fill-rule:evenodd;clip-rule:evenodd;fill:#FFFFFF;" d="M330.654,53.754H49.45c-5.034,0-9.115,4.081-9.115,9.115
			v6.836c0,5.034,4.081,9.115,9.115,9.115h281.204c5.034,0,9.115-4.081,9.115-9.115v-6.836
			C339.769,57.835,335.688,53.754,330.654,53.754z"/>
	</g>
</g>
<g id="HP&#x8272;">
	<g>
		<path style="fill:#040000;" d="M331.109,57.476c2.723,0,4.937,2.215,4.937,4.937v7.748c0,2.722-2.215,4.937-4.937,4.937H49.45
			c-2.722,0-4.937-2.215-4.937-4.937v-7.748c0-2.722,2.215-4.937,4.937-4.937H331.109 M331.109,55.577H49.45
			c-3.776,0-6.836,3.061-6.836,6.836v7.748c0,3.776,3.061,6.836,6.836,6.836h281.66c3.776,0,6.836-3.061,6.836-6.836v-7.748
			C337.946,58.637,334.885,55.577,331.109,55.577L331.109,55.577z"/>
	</g>
</g>
<image style="overflow:visible;" width="138" height="41" id="_x31_00_x2F_100_xA0_&#x753B;&#x50CF;_1_" xlink:href="983F4DF92F22AE73.png"  transform="matrix(0.4558 0 0 0.4558 272.772 61.5015)">
</image>
</svg>
