<?xml version="1.0" encoding="iso-8859-1"?>
<!-- Generator: Adobe Illustrator 17.0.0, SVG Export Plug-In . SVG Version: 6.00 Build 0)  -->
<!DOCTYPE svg PUBLIC "-//W3C//DTD SVG 1.1//EN" "http://www.w3.org/Graphics/SVG/1.1/DTD/svg11.dtd">
<svg version="1.1" id="&#x30EC;&#x30A4;&#x30E4;&#x30FC;_1"
	 xmlns="http://www.w3.org/2000/svg" xmlns:xlink="http://www.w3.org/1999/xlink" x="0px" y="0px" width="73.627px"
	 height="101.118px" viewBox="0 0 73.627 101.118" style="enable-background:new 0 0 73.627 101.118;" xml:space="preserve">
<ellipse style="fill:#FFFFFF;" cx="38.823" cy="66.054" rx="33.549" ry="33.482"/>
<path style="fill:#33485C;" d="M37.837,27.747c-8.848,0-32.941,4.344-37.837,4.344c0,0,15.734,4.164,13.466,6.432
	c-6.62,6.62-11.42,18.194-11.42,25.909c0,20.261,16.024,36.686,35.791,36.686c19.767,0,35.791-16.425,35.791-36.686
	C73.627,44.172,57.604,27.747,37.837,27.747z M37.837,96.153c-15.903,0-28.794-13.708-28.794-30.617s12.892-30.617,28.794-30.617
	s28.794,13.708,28.794,30.617S53.739,96.153,37.837,96.153z"/>
<ellipse style="fill:#33485C;" cx="56.201" cy="66.054" rx="4.553" ry="7.77"/>
<ellipse style="fill:#33485C;" cx="38.823" cy="66.054" rx="7.447" ry="11.894"/>
<linearGradient id="SVGID_1_" gradientUnits="userSpaceOnUse" x1="14.8198" y1="27.1322" x2="14.8198" y2="2.9156">
	<stop  offset="0.6264" style="stop-color:#FFF11D"/>
	<stop  offset="0.6589" style="stop-color:#FFF344"/>
	<stop  offset="0.7048" style="stop-color:#FFF675"/>
	<stop  offset="0.7519" style="stop-color:#FFF9A0"/>
	<stop  offset="0.7994" style="stop-color:#FFFBC2"/>
	<stop  offset="0.8475" style="stop-color:#FFFDDD"/>
	<stop  offset="0.8964" style="stop-color:#FFFEF0"/>
	<stop  offset="0.9466" style="stop-color:#FFFFFB"/>
	<stop  offset="1" style="stop-color:#FFFFFF"/>
</linearGradient>
<path style="fill:url(#SVGID_1_);" d="M7.594,5.091c1.892-0.706,7.225-2.176,7.225-2.176l7.225,24.217L7.594,5.091z"/>
<linearGradient id="SVGID_2_" gradientUnits="userSpaceOnUse" x1="53.9643" y1="25.8378" x2="53.9643" y2="3.2508">
	<stop  offset="0.6264" style="stop-color:#FFF11D"/>
	<stop  offset="0.6589" style="stop-color:#FFF344"/>
	<stop  offset="0.7048" style="stop-color:#FFF675"/>
	<stop  offset="0.7519" style="stop-color:#FFF9A0"/>
	<stop  offset="0.7994" style="stop-color:#FFFBC2"/>
	<stop  offset="0.8475" style="stop-color:#FFFDDD"/>
	<stop  offset="0.8964" style="stop-color:#FFFEF0"/>
	<stop  offset="0.9466" style="stop-color:#FFFFFB"/>
	<stop  offset="1" style="stop-color:#FFFFFF"/>
</linearGradient>
<path style="fill:url(#SVGID_2_);" d="M61.658,6.51c-1.288-0.987-5.024-3.26-5.024-3.26L46.271,25.838L61.658,6.51z"/>
<linearGradient id="SVGID_3_" gradientUnits="userSpaceOnUse" x1="33.2809" y1="21.1436" x2="33.2809" y2="9.913492e-11">
	<stop  offset="0.6264" style="stop-color:#FFF11D"/>
	<stop  offset="0.6589" style="stop-color:#FFF344"/>
	<stop  offset="0.7048" style="stop-color:#FFF675"/>
	<stop  offset="0.7519" style="stop-color:#FFF9A0"/>
	<stop  offset="0.7994" style="stop-color:#FFFBC2"/>
	<stop  offset="0.8475" style="stop-color:#FFFDDD"/>
	<stop  offset="0.8964" style="stop-color:#FFFEF0"/>
	<stop  offset="0.9466" style="stop-color:#FFFFFB"/>
	<stop  offset="1" style="stop-color:#FFFFFF"/>
</linearGradient>
<path style="fill:url(#SVGID_3_);" d="M35.49,0.292C34.289,0.104,31.072,0,31.072,0l4.091,21.144L35.49,0.292z"/>
</svg>
