<?xml version="1.0" encoding="iso-8859-1"?>
<!-- Generator: Adobe Illustrator 17.0.0, SVG Export Plug-In . SVG Version: 6.00 Build 0)  -->
<!DOCTYPE svg PUBLIC "-//W3C//DTD SVG 1.1//EN" "http://www.w3.org/Graphics/SVG/1.1/DTD/svg11.dtd">
<svg version="1.1" id="&#x30EC;&#x30A4;&#x30E4;&#x30FC;_1"
	 xmlns="http://www.w3.org/2000/svg" xmlns:xlink="http://www.w3.org/1999/xlink" x="0px" y="0px" width="134.519px"
	 height="84.93px" viewBox="0 0 134.519 84.93" style="enable-background:new 0 0 134.519 84.93;" xml:space="preserve">
<image style="overflow:visible;" width="105" height="175" id="&#x96FB;&#x7403;_xA0_&#x753B;&#x50CF;_1_" xlink:href="4A155EDBD33FD113.png"  transform="matrix(0.3121 0 0 0.3121 101.7477 0)">
</image>
<g id="&#x9577;&#x65B9;&#x5F62;_1">
	<g>
		<path style="fill-rule:evenodd;clip-rule:evenodd;fill:#DC7B26;" d="M77.074,57.74H9.363C4.192,57.74,0,61.932,0,67.104V84.27
			h77.324L77.074,57.74z"/>
	</g>
</g>
<g>
	<path style="fill:#FFFFFF;" d="M11.124,66.509c0.366,0.655,0.442,1.067,0.229,1.234c-0.853,0.579-1.951,1.189-3.292,1.829
		c-1.295,0.61-2.149,0.975-2.56,1.097c-0.168,0.03-0.411-0.175-0.732-0.617c-0.122-0.274-0.198-0.503-0.229-0.686
		c0.03-0.122,0.076-0.221,0.137-0.297c0.396-0.32,1.166-0.853,2.309-1.6c1.143-0.732,2.21-1.333,3.2-1.806
		C10.445,65.572,10.758,65.854,11.124,66.509z M9.592,79.036c-0.747,0.076-1.151-0.015-1.212-0.274
		c-0.244-1.143-0.427-2.537-0.549-4.183c-0.076-1.646-0.107-2.69-0.091-3.132c0-0.229,0.29-0.389,0.869-0.48
		c0.549-0.076,0.861,0.023,0.937,0.297c0.183,0.533,0.411,1.57,0.686,3.109c0.274,1.493,0.45,2.865,0.526,4.115
		C10.758,78.746,10.369,78.929,9.592,79.036z M12.45,67.149c0.503-1.783,1.052-3.36,1.646-4.732
		c0.046-0.091,0.168-0.152,0.366-0.183c0.183,0.015,0.434,0.069,0.754,0.16c0.64,0.213,0.937,0.45,0.892,0.709
		c-0.198,0.808-0.472,1.737-0.823,2.789c0.274,0,0.533-0.015,0.777-0.046c0.594-0.03,1.356-0.107,2.286-0.229
		c0.914-0.137,1.714-0.244,2.4-0.32c0.686-0.046,1.814-0.069,3.383-0.069c0.274,0,0.427,0.396,0.457,1.189
		c-0.015,0.762-0.175,1.151-0.48,1.166c-0.899,0.122-1.57,0.19-2.012,0.206c-0.396,0-0.952,0.015-1.669,0.046
		c-0.351,0-0.808,0.015-1.372,0.046c0,0.488,0.008,1.143,0.023,1.966c0,1.448-0.015,3.284-0.046,5.509
		c-0.03,2.21-0.19,4.221-0.48,6.035c0,0.198-0.175,0.328-0.526,0.389c-0.122-0.03-0.259-0.023-0.411,0.023
		c-0.198-0.046-0.396-0.061-0.594-0.046c-0.305-0.046-0.48-0.168-0.526-0.366c-0.107-0.899-0.145-2.309-0.114-4.229
		c0.046-1.92,0.122-3.863,0.229-5.829c0.076-1.372,0.145-2.507,0.206-3.406c-0.808,0-1.562-0.008-2.263-0.023v0.046
		c-0.716,1.814-1.227,2.972-1.532,3.475c-0.076,0.152-0.366,0.16-0.869,0.023c-0.442-0.137-0.655-0.335-0.64-0.594
		C11.604,70.166,11.916,68.932,12.45,67.149z M19.97,71.835c0-0.686,0.13-1.052,0.389-1.097c0.686-0.046,1.402-0.076,2.149-0.091
		c0.762,0,1.25,0.023,1.463,0.069c0.305,0,0.457,0.335,0.457,1.006c0,0.625-0.145,0.968-0.434,1.029
		c-0.259,0.03-0.777,0.084-1.554,0.16c-0.716,0.03-1.433,0.038-2.149,0.023C20.077,72.902,19.97,72.536,19.97,71.835z
		 M20.062,76.407c0.03-0.686,0.168-1.044,0.411-1.074c0.533-0.046,1.09-0.061,1.669-0.046c0.579,0,0.952,0.023,1.12,0.069
		c0.32,0,0.465,0.343,0.434,1.029c-0.015,0.625-0.168,0.96-0.457,1.006c-0.655,0.122-1.623,0.16-2.903,0.114
		C20.123,77.474,20.031,77.108,20.062,76.407z"/>
	<path style="fill:#FFFFFF;" d="M36.292,80.933c-0.472,0.015-0.968-0.015-1.486-0.091c-0.472-0.091-0.93-0.236-1.372-0.434
		c-0.396-0.183-0.77-0.434-1.12-0.754c-0.305-0.305-0.526-0.648-0.663-1.029c-0.168-0.625-0.19-1.196-0.069-1.714
		c0.137-0.503,0.389-0.952,0.754-1.349c0.366-0.366,0.792-0.671,1.28-0.914c0.503-0.213,0.998-0.343,1.486-0.389
		c0.823-0.091,1.577-0.084,2.263,0.023c0.671,0.107,1.356,0.351,2.057,0.732c0.168,0.061,0.259,0.19,0.274,0.389
		c0.03,0.168,0,0.373-0.091,0.617c-0.198,0.488-0.45,0.671-0.754,0.549c-0.488-0.229-1.044-0.419-1.669-0.571
		c-0.579-0.137-1.128-0.168-1.646-0.091c-0.305,0.015-0.61,0.091-0.914,0.229c-0.244,0.107-0.465,0.251-0.663,0.434
		c-0.168,0.168-0.297,0.358-0.389,0.571c-0.061,0.198-0.076,0.411-0.046,0.64c0.091,0.396,0.366,0.732,0.823,1.006
		c0.457,0.244,1.151,0.351,2.08,0.32c0.259,0,0.564-0.038,0.914-0.114c0.366-0.046,0.724-0.152,1.074-0.32
		c0.366-0.137,0.709-0.312,1.029-0.526s0.579-0.472,0.777-0.777c0.229-0.32,0.389-0.671,0.48-1.052
		c0.091-0.366,0.137-0.724,0.137-1.074c0-0.351-0.038-0.671-0.114-0.96c-0.03-0.274-0.107-0.495-0.229-0.663
		c-0.168-0.411-0.472-0.747-0.914-1.006c-0.381-0.259-0.831-0.457-1.349-0.594c-0.488-0.122-1.006-0.198-1.554-0.229
		c-0.518-0.03-1.013-0.038-1.486-0.023c-0.533,0.015-1.158,0.122-1.874,0.32c-0.655,0.168-1.265,0.343-1.829,0.526
		c-0.107,0-0.229-0.061-0.366-0.183c-0.076-0.122-0.168-0.297-0.274-0.526c-0.061-0.213-0.091-0.389-0.091-0.526
		c0.03-0.122,0.137-0.213,0.32-0.274c0.305-0.168,0.663-0.32,1.074-0.457c0.411-0.137,0.838-0.251,1.28-0.343
		c0.64-0.411,1.181-0.785,1.623-1.12c0.442-0.32,0.8-0.61,1.074-0.869c0.274-0.259,0.511-0.503,0.709-0.732
		c0.183-0.229,0.373-0.465,0.571-0.709c0.091-0.122,0.107-0.198,0.046-0.229c-0.061,0-0.183-0.008-0.366-0.023
		c-0.168,0-0.45,0-0.846,0c-0.351,0-0.747,0.015-1.189,0.046c-0.396,0-0.815,0.023-1.257,0.069
		c-0.396,0.015-0.762,0.038-1.097,0.069c-0.533,0.061-1.12,0.145-1.76,0.251c-0.579,0.076-1.166,0.16-1.76,0.251
		c-0.152,0.015-0.274-0.038-0.366-0.16c-0.061-0.122-0.13-0.297-0.206-0.526c-0.061-0.229-0.084-0.434-0.069-0.617
		c0.03-0.168,0.13-0.267,0.297-0.297c0.533-0.137,1.113-0.274,1.737-0.411c0.64-0.091,1.28-0.19,1.92-0.297
		c0.351-0.046,0.77-0.084,1.257-0.114s0.998-0.061,1.532-0.091c0.549,0,1.105-0.015,1.669-0.046c0.549,0,1.09-0.008,1.623-0.023
		c0.183,0,0.343-0.084,0.48-0.251c0.122-0.122,0.29-0.152,0.503-0.091c0.229,0.03,0.457,0.145,0.686,0.343
		c0.64,0.396,0.861,0.77,0.663,1.12c-0.351,0.625-0.861,1.318-1.532,2.08c-0.625,0.747-1.379,1.425-2.263,2.035
		c0.594,0.015,1.181,0.091,1.76,0.229c0.579,0.122,1.12,0.312,1.623,0.571c0.503,0.244,0.96,0.564,1.372,0.96
		c0.411,0.351,0.754,0.815,1.029,1.394c0.137,0.29,0.251,0.648,0.343,1.074c0.091,0.396,0.13,0.815,0.114,1.257
		c0,0.427-0.061,0.861-0.183,1.303c-0.076,0.396-0.244,0.785-0.503,1.166c-0.564,0.945-1.417,1.684-2.56,2.217
		C39.028,80.621,37.755,80.888,36.292,80.933z"/>
</g>
<g>
	<ellipse style="fill:#FFFFFF;" cx="75.146" cy="48.651" rx="34.712" ry="34.643"/>
	<g>
		<path style="fill:#DC7B26;" d="M74.125,9.015c-9.155,0-34.083,4.495-39.148,4.495c0,0,16.279,4.309,13.933,6.655
			C42.06,27.015,37.094,38.99,37.094,46.972c0,20.963,16.58,37.957,37.031,37.957c20.452,0,37.031-16.994,37.031-37.957
			C111.156,26.009,94.577,9.015,74.125,9.015z M74.125,79.793c-16.454,0-29.792-14.183-29.792-31.679s13.338-31.679,29.792-31.679
			s29.792,14.183,29.792,31.679S90.579,79.793,74.125,79.793z"/>
		<ellipse style="fill:#DC7B26;" cx="93.125" cy="48.651" rx="4.711" ry="8.039"/>
		<ellipse style="fill:#DC7B26;" cx="75.146" cy="48.651" rx="7.706" ry="12.306"/>
	</g>
</g>
</svg>
