<?xml version="1.0" encoding="utf-8"?>
<!-- Generator: Adobe Illustrator 17.0.0, SVG Export Plug-In . SVG Version: 6.00 Build 0)  -->
<!DOCTYPE svg PUBLIC "-//W3C//DTD SVG 1.1//EN" "http://www.w3.org/Graphics/SVG/1.1/DTD/svg11.dtd">
<svg version="1.1" id="レイヤー_1" xmlns="http://www.w3.org/2000/svg" xmlns:xlink="http://www.w3.org/1999/xlink" x="0px"
	 y="0px" width="134.532px" height="84.926px" viewBox="0 0 134.532 84.926" enable-background="new 0 0 134.532 84.926"
	 xml:space="preserve">
<path fill="#297AAD" d="M0,84.23c0,0,0-14.31,0-18.74c0-4.43,6.036-7.79,7.036-7.79s66.322,0,66.322,0L73.02,84.23H0z"/>
<g>
	<ellipse fill="#FFFFFF" cx="75.437" cy="48.647" rx="34.712" ry="34.643"/>
	<g>
		<path fill="#297AAD" d="M74.417,9.012c-9.155,0-34.083,4.495-39.148,4.495c0,0,16.279,4.309,13.933,6.655
			c-6.85,6.85-11.817,18.825-11.817,26.807c0,20.963,16.58,37.957,37.031,37.957c20.452,0,37.031-16.994,37.031-37.957
			C111.448,26.006,94.869,9.012,74.417,9.012z M74.417,79.789c-16.454,0-29.792-14.183-29.792-31.679s13.338-31.678,29.792-31.678
			s29.792,14.183,29.792,31.679S90.87,79.789,74.417,79.789z"/>
		<ellipse fill="#297AAD" cx="93.417" cy="48.647" rx="4.711" ry="8.039"/>
		<ellipse fill="#297AAD" cx="75.437" cy="48.647" rx="7.706" ry="12.306"/>
	</g>
</g>
<g>
	<path fill="#FFFFFF" d="M9.16,73.632c-0.213,1.448-0.541,2.842-0.983,4.183v0.046c0.579,0.122,1.112,0.267,1.6,0.434
		c0.64,0.168,1.356,0.343,2.149,0.526c0.777,0.168,1.509,0.328,2.195,0.48c0.686,0.107,1.311,0.213,1.874,0.32
		c0.274,0.061,0.358,0.457,0.251,1.189c-0.107,0.655-0.312,0.991-0.617,1.006c-0.015-0.03-0.038-0.03-0.069,0
		c-0.762-0.122-1.539-0.274-2.332-0.457c-0.762-0.183-1.57-0.389-2.423-0.617c-0.808-0.213-1.547-0.427-2.217-0.64
		c-0.381-0.137-0.747-0.274-1.097-0.411c-0.213,0.564-0.457,1.09-0.732,1.577c-0.122,0.213-0.335,0.305-0.64,0.274
		c-0.259-0.046-0.511-0.13-0.754-0.251c-0.198-0.122-0.251-0.351-0.16-0.686c0.259-1.082,0.571-2.278,0.937-3.589
		c0.351-1.28,0.617-2.408,0.8-3.383c0-0.351-0.152-0.45-0.457-0.297c-0.213,0.03-0.427,0.099-0.64,0.206
		c-0.168,0.03-0.373,0.114-0.617,0.251c-0.198,0-0.328-0.152-0.389-0.457c0.03-0.168,0.023-0.328-0.023-0.48
		c0.046-0.137,0.053-0.282,0.023-0.434c0.046-0.305,0.175-0.472,0.389-0.503c0.732-0.183,1.57-0.274,2.515-0.274
		c0.274-0.259,0.533-0.351,0.777-0.274c0.259,0.076,0.503,0.19,0.732,0.343c0.229,0.122,0.305,0.366,0.229,0.732
		C9.419,72.748,9.312,73.144,9.16,73.632z M6.211,66.088c0.32-0.091,0.61-0.145,0.869-0.16c0.732,0,1.166,0.091,1.303,0.274
		c0.137,0.168,0.168,0.617,0.091,1.349c-0.076,0.625-0.213,0.991-0.411,1.097c-0.122,0.076-0.312,0.13-0.571,0.16
		c-0.198,0.015-0.427,0.03-0.686,0.046c-0.244,0-0.442-0.046-0.594-0.137c-0.122-0.076-0.274-0.411-0.457-1.006
		c-0.122-0.594-0.168-0.991-0.137-1.189C5.662,66.339,5.86,66.195,6.211,66.088z M13.96,78.044c0.137-2.24,0.282-4.183,0.434-5.829
		c0-0.274-0.145-0.358-0.434-0.251c-0.198,0-0.427,0.023-0.686,0.069c-0.168,0-0.373,0.023-0.617,0.069
		c-0.244,1.356-0.495,3.04-0.754,5.052c-0.03,0.213-0.32,0.32-0.869,0.32c-0.518,0-0.785-0.137-0.8-0.411
		c0-1.189,0.046-2.469,0.137-3.84c0.122-1.372,0.274-2.537,0.457-3.498c0.091-0.579,0.221-1.12,0.389-1.623
		c-0.259,0-0.61-0.015-1.052-0.046c-0.305,0-0.472-0.389-0.503-1.166c0-0.777,0.168-1.143,0.503-1.097
		c0.853-0.046,1.493-0.084,1.92-0.114h2.149c0.274,0,0.991,0.038,2.149,0.114c0.229,0,0.358,0.297,0.389,0.892
		c0,0.579-0.107,0.914-0.32,1.006c-1.402,0.198-2.415,0.32-3.04,0.366L13,70.34l-0.023,0.069c0.274-0.03,0.556-0.046,0.846-0.046
		h1.052c0.091-0.229,0.312-0.312,0.663-0.251c0.351,0.061,0.671,0.152,0.96,0.274c0.274,0.107,0.351,0.419,0.229,0.937
		c0.03,0.838,0,1.661-0.091,2.469c-0.061,0.792-0.16,1.524-0.297,2.195c-0.107,0.655-0.259,1.341-0.457,2.057
		c-0.122,0.29-0.465,0.442-1.029,0.457c-0.213,0-0.434-0.023-0.663-0.069C14.021,78.386,13.945,78.257,13.96,78.044z M12.543,62.385
		c0.305-0.076,0.579-0.122,0.823-0.137c0.686,0.015,1.097,0.099,1.234,0.251c0.137,0.168,0.16,0.594,0.069,1.28
		c-0.076,0.579-0.198,0.922-0.366,1.029c-0.122,0.076-0.305,0.13-0.549,0.16c-0.198,0-0.419,0.008-0.663,0.023
		c-0.213,0-0.396-0.038-0.549-0.114c-0.122-0.076-0.267-0.396-0.434-0.96c-0.107-0.549-0.145-0.922-0.114-1.12
		C12.04,62.613,12.223,62.476,12.543,62.385z M20.338,75.598c-0.884,0.03-1.692,0.053-2.423,0.069c-0.213,0-0.335-0.29-0.366-0.869
		c0-0.594,0.152-0.884,0.457-0.869c0.594-0.091,1.097-0.16,1.509-0.206c0.213-0.03,0.465-0.076,0.754-0.137v-0.091
		c0-0.046,0.008-0.099,0.023-0.16c0-0.046,0.023-0.107,0.069-0.183c0.122-0.305,0.274-0.632,0.457-0.983
		c0.183-0.351,0.351-0.648,0.503-0.892c0.137-0.229,0.282-0.472,0.434-0.732c0.183-0.183,0.168-0.297-0.046-0.343h-0.594
		c-0.198,0-0.549,0.053-1.052,0.16c-0.488,0.061-0.861,0.137-1.12,0.229c-0.381,0.122-0.709,0.076-0.983-0.137
		c-0.259-0.229-0.434-0.511-0.526-0.846c-0.03-0.305,0.046-0.48,0.229-0.526c1.173-0.305,2.362-0.48,3.566-0.526
		c0.549-0.03,1.097-0.038,1.646-0.023c0.168-0.046,0.351-0.137,0.549-0.274c0.183-0.091,0.404-0.069,0.663,0.069
		c0.229,0.152,0.465,0.366,0.709,0.64c0.213,0.244,0.274,0.495,0.183,0.754c-0.076,0.213-0.206,0.465-0.389,0.754
		c-0.198,0.488-0.495,0.96-0.892,1.417c-0.351,0.427-0.724,0.815-1.12,1.166c-0.061,0.015-0.114,0.061-0.16,0.137
		c0.046,0,0.107-0.008,0.183-0.023c0.457-0.076,1.204-0.145,2.24-0.206c0.259,0,0.404,0.373,0.434,1.12
		c-0.015,0.716-0.168,1.082-0.457,1.097c-0.579,0.076-1.021,0.137-1.326,0.183c-0.213,0-0.511,0.015-0.892,0.046
		c0.274,1.478,0.389,2.705,0.343,3.68c0,0.259-0.343,0.411-1.029,0.457c-0.671,0.03-1.029-0.122-1.074-0.457l-0.137-1.623
		c-0.015-0.533-0.069-1.113-0.16-1.737c0-0.076-0.008-0.13-0.023-0.16C20.49,75.575,20.429,75.582,20.338,75.598z M17.481,67.322
		c0.137-1.265,0.617-2.88,1.44-4.846c0.046-0.122,0.16-0.175,0.343-0.16c0.183,0,0.465,0.061,0.846,0.183
		c0.686,0.213,0.998,0.465,0.937,0.754c-0.076,0.335-0.206,0.716-0.389,1.143c0.183-0.03,0.396-0.061,0.64-0.091
		c0.549-0.091,1.029-0.16,1.44-0.206c0.396-0.046,1.067-0.076,2.012-0.091c0.274,0,0.419,0.373,0.434,1.12
		c0,0.716-0.152,1.082-0.457,1.097c-0.533,0.03-0.937,0.061-1.212,0.091c-0.213,0-0.549,0.015-1.006,0.046
		c-0.396,0-1.013,0.015-1.852,0.046c-0.259,0-0.533-0.008-0.823-0.023c-0.351,0.792-0.61,1.311-0.777,1.554
		c-0.076,0.168-0.381,0.175-0.914,0.023C17.656,67.825,17.435,67.612,17.481,67.322z"/>
	<path fill="#FFFFFF" d="M32.431,74.706c-0.122,0.351-0.282,0.724-0.48,1.12c-0.152,0.351-0.312,0.663-0.48,0.937
		c-0.122,0.244-0.274,0.495-0.457,0.754c-0.061,0.061-0.213,0.084-0.457,0.069c-0.198,0-0.457-0.091-0.777-0.274
		c-0.381-0.183-0.632-0.366-0.754-0.549c-0.076-0.137-0.114-0.282-0.114-0.434c0.091-0.229,0.244-0.533,0.457-0.914
		c0.213-0.351,0.45-0.701,0.709-1.052c0.183-0.259,0.373-0.533,0.571-0.823c0.213-0.274,0.45-0.533,0.709-0.777
		c0.046-0.046,0.152-0.046,0.32,0c0.168,0.03,0.358,0.137,0.571,0.32c0.213,0.107,0.366,0.206,0.457,0.297
		c0.091,0.061,0.13,0.152,0.114,0.274C32.743,73.959,32.614,74.31,32.431,74.706z M37.094,78.821
		c-0.107-0.594-0.221-1.341-0.343-2.24c-0.061-0.869-0.114-1.585-0.16-2.149c-0.015-0.549-0.038-1.006-0.069-1.372
		c0-0.351,0-0.61,0-0.777s0-0.29,0-0.366c0-0.137,0.114-0.229,0.343-0.274c0.853-1.189,1.493-2.179,1.92-2.972
		c0.411-0.777,0.716-1.44,0.914-1.989c0.03-0.122-0.015-0.213-0.137-0.274c-0.076-0.046-0.198-0.069-0.366-0.069s-0.427,0-0.777,0
		c-0.29,0-0.625,0.015-1.006,0.046c-0.335,0-0.693,0.023-1.074,0.069c-0.351,0.015-0.686,0.046-1.006,0.091
		c-0.533,0.03-1.12,0.099-1.76,0.206c-0.579,0.076-1.158,0.16-1.737,0.251c-0.152,0.015-0.282-0.046-0.389-0.183
		c-0.061-0.137-0.13-0.328-0.206-0.571c-0.061-0.229-0.084-0.442-0.069-0.64c0.03-0.183,0.122-0.297,0.274-0.343
		c0.549-0.137,1.135-0.267,1.76-0.389c0.64-0.091,1.28-0.183,1.92-0.274c0.686-0.091,1.471-0.152,2.355-0.183
		c0.869,0,1.836,0,2.903,0c0.076,0,0.16-0.03,0.251-0.091c0.091-0.046,0.183-0.122,0.274-0.229c0.091-0.122,0.267-0.152,0.526-0.091
		c0.259,0.03,0.526,0.137,0.8,0.32c0.35,0.168,0.564,0.335,0.64,0.503c0.076,0.152,0.084,0.328,0.023,0.526
		c-0.168,0.579-0.404,1.189-0.709,1.829c-0.259,0.625-0.571,1.25-0.937,1.874c-0.305,0.579-0.678,1.151-1.12,1.714
		c-0.381,0.533-0.792,1.013-1.234,1.44c0.046,0.168,0.084,0.366,0.114,0.594c0.03,0.168,0.061,0.389,0.091,0.663
		c0.046,0.381,0.084,0.8,0.114,1.257c0.046,0.442,0.076,0.914,0.091,1.417c0,0.259,0.008,0.495,0.023,0.709
		c0,0.168,0.008,0.328,0.023,0.48c0,0.122,0,0.274,0,0.457c0,0.122,0,0.312,0,0.571c0,0.351-0.008,0.671-0.023,0.96
		c0,0.259-0.015,0.61-0.046,1.052c0,0.076-0.061,0.16-0.183,0.251c-0.107,0.061-0.335,0.114-0.686,0.16
		c-0.259,0.015-0.472,0-0.64-0.046c-0.122-0.046-0.213-0.114-0.274-0.206C37.384,80.002,37.246,79.43,37.094,78.821z M44.226,75.643
		c-0.198-0.351-0.404-0.709-0.617-1.074c-0.168-0.351-0.328-0.686-0.48-1.006c-0.015-0.091,0.015-0.183,0.091-0.274
		c0.091-0.076,0.244-0.19,0.457-0.343c0.183-0.168,0.351-0.29,0.503-0.366c0.168-0.046,0.29-0.053,0.366-0.023
		c0.259,0.198,0.503,0.427,0.732,0.686c0.229,0.213,0.472,0.457,0.732,0.732c0.274,0.335,0.533,0.678,0.777,1.029
		c0.229,0.305,0.411,0.587,0.549,0.846c0.046,0.107,0.023,0.251-0.069,0.434c-0.076,0.168-0.305,0.381-0.686,0.64
		c-0.259,0.198-0.526,0.32-0.8,0.366c-0.213,0.03-0.373,0-0.48-0.091c-0.168-0.183-0.343-0.404-0.526-0.663
		C44.622,76.306,44.44,76.009,44.226,75.643z M45.964,64.762c-0.015,0.29-0.061,0.533-0.137,0.732
		c-0.03,0.122-0.114,0.229-0.251,0.32c-0.076,0.03-0.29,0.076-0.64,0.137c-0.488,0.03-0.823-0.038-1.006-0.206
		c-0.03-0.076-0.076-0.168-0.137-0.274c-0.015-0.091-0.061-0.221-0.137-0.389c-0.061-0.183-0.114-0.328-0.16-0.434
		c0-0.091-0.015-0.183-0.046-0.274c-0.076-0.366,0.32-0.61,1.189-0.732c0.777-0.046,1.204,0.053,1.28,0.297
		c0.03,0.122,0.046,0.251,0.046,0.389C45.964,64.45,45.964,64.595,45.964,64.762z M48.638,64.648
		c0.122,0.122,0.221,0.358,0.297,0.709c0.046,0.107,0.084,0.229,0.114,0.366c0.03,0.122,0.046,0.274,0.046,0.457
		c-0.015,0.213-0.411,0.381-1.189,0.503c-0.853,0.107-1.288-0.038-1.303-0.434c0-0.076-0.008-0.168-0.023-0.274
		c0-0.091,0.015-0.244,0.046-0.457c0.03-0.168,0.053-0.305,0.069-0.411c0-0.091,0.023-0.19,0.069-0.297
		c0.091-0.229,0.404-0.366,0.937-0.411c0.305-0.03,0.518-0.03,0.64,0S48.562,64.511,48.638,64.648z"/>
</g>
</svg>
