<?xml version="1.0" encoding="utf-8"?>
<!-- Generator: Adobe Illustrator 17.0.0, SVG Export Plug-In . SVG Version: 6.00 Build 0)  -->
<!DOCTYPE svg PUBLIC "-//W3C//DTD SVG 1.1//EN" "http://www.w3.org/Graphics/SVG/1.1/DTD/svg11.dtd">
<svg version="1.1" xmlns="http://www.w3.org/2000/svg" xmlns:xlink="http://www.w3.org/1999/xlink" x="0px" y="0px"
	 width="76.586px" height="76.171px" viewBox="10.157 2.013 76.586 76.171" enable-background="new 10.157 2.013 76.586 76.171"
	 xml:space="preserve">
<g id="レイヤー_1">
	<ellipse opacity="0.7" fill="#FFFFFF" cx="49.538" cy="41.242" rx="34.94" ry="34.87"/>
	<ellipse opacity="0.7" fill="#33485C" cx="68.687" cy="41.889" rx="4.742" ry="8.092"/>
	<ellipse opacity="0.7" fill="#33485C" cx="50.59" cy="41.889" rx="7.756" ry="12.387"/>
	<path opacity="0.7" fill="#33485C" d="M24.181,13.217c-1.66,1.66-3.207,3.624-4.604,5.755l6.247,2.902
		C31.106,14.607,39.27,9.839,48.497,9.495V2.013c-9.943,0.304-33.425,4.505-38.34,4.505C10.157,6.518,26.543,10.855,24.181,13.217z"
		/>
	<g opacity="0.7">
		<path fill="#33485C" d="M70.808,18.872l5.868-4.88c-4.872-5.29-11.201-9.155-18.33-10.921v7.784
			C63.119,12.408,67.375,15.204,70.808,18.872z"/>
		<path fill="#33485C" d="M79.319,37.492h7.424c-0.425-6.216-2.303-12.019-5.285-17.061L75.5,25.386
			C77.487,29.029,78.817,33.124,79.319,37.492z"/>
		<path fill="#33485C" d="M12.859,46.833c0.894,5.232,2.832,10.094,5.576,14.363l5.477-3.347c-1.894-3.324-3.239-7.042-3.888-11.016
			H12.859z"/>
		<g>
			<path fill="#33485C" d="M53.541,72.952v5.232c7.875-0.858,15.013-4.234,20.643-9.321l-5.081-3.339
				C64.804,69.458,59.445,72.119,53.541,72.952z"/>
			<path fill="#33485C" d="M86.534,44.992h-7.184c-0.55,5.138-2.266,9.891-4.832,13.989l5.314,3.492
				C83.371,57.428,85.743,51.463,86.534,44.992z"/>
		</g>
		<path fill="#33485C" d="M29.236,64.786l-5.239,3.201c5.754,5.569,13.237,9.276,21.538,10.192v-5.234
			C39.286,72.052,33.647,69.117,29.236,64.786z"/>
		<path fill="#33485C" d="M21.33,30.585l-6.253-2.905c-1.44,3.626-2.38,7.263-2.678,10.46h7.332
			C19.979,35.515,20.521,32.983,21.33,30.585z"/>
	</g>
</g>
<g id="レイヤー_2">
</g>
</svg>
