<?xml version="1.0" encoding="iso-8859-1"?>
<!-- Generator: Adobe Illustrator 17.0.0, SVG Export Plug-In . SVG Version: 6.00 Build 0)  -->
<!DOCTYPE svg PUBLIC "-//W3C//DTD SVG 1.1//EN" "http://www.w3.org/Graphics/SVG/1.1/DTD/svg11.dtd">
<svg version="1.1" id="&#x30EC;&#x30A4;&#x30E4;&#x30FC;_1"
	 xmlns="http://www.w3.org/2000/svg" xmlns:xlink="http://www.w3.org/1999/xlink" x="0px" y="0px" width="90.798px"
	 height="129.454px" viewBox="0 0 90.798 129.454" style="enable-background:new 0 0 90.798 129.454;" xml:space="preserve">
<ellipse style="fill:#FFFFFF;" cx="44.531" cy="84.847" rx="37.92" ry="37.844"/>
<g>
	<path style="fill:#B6382A;" d="M45.399,40.631c-10.712,0-26.568,5.259-32.495,5.259c0,0,5.737,5.042,2.992,7.787
		C7.882,61.692,2.071,75.703,2.071,85.043c0,24.528,19.399,44.412,43.328,44.412c23.93,0,43.328-19.884,43.328-44.412
		C88.727,60.515,69.329,40.631,45.399,40.631z M45.399,123.444c-19.252,0-34.858-16.595-34.858-37.065s15.607-37.065,34.858-37.065
		s34.858,16.595,34.858,37.065S64.651,123.444,45.399,123.444z"/>
	<ellipse style="fill:#B6382A;" cx="67.63" cy="87.007" rx="5.512" ry="9.406"/>
	<ellipse style="fill:#B6382A;" cx="46.593" cy="87.007" rx="9.016" ry="14.399"/>
</g>
<g>
	<path style="fill:#B6382A;" d="M24.607,64.071c-4.982,0-8.4-0.984-10.159-2.924c-1.308-1.443-1.346-3.043-1.292-3.848
		c-0.365,0.03-0.852,0.097-1.391,0.171c-1.468,0.201-3.479,0.477-5.402,0.477c-3.89,0-5.862-1.179-5.862-3.503
		c0-5.527,7.553-9.281,9.434-9.451c0.033-0.163,0.042-0.484,0.05-0.751c0.051-1.75,0.146-5.008,4.988-6.838
		c0.862-0.326,1.836-0.491,2.893-0.491c2.861,0,5.679,1.184,6.978,1.815c0.129-1.764,1.041-4.653,5.344-6.352
		c0.794-0.314,1.568-0.473,2.301-0.473c2.667,0,4.364,2.042,5.727,3.684c0.86,1.035,1.672,2.012,2.392,2.012
		c0.085,0,0.169-0.013,0.257-0.039c0.367-0.11,0.567-0.582,0.888-1.407c0.815-2.094,2.18-5.599,10.503-5.599
		c3.116,0,5.515,0.893,7.13,2.652c1.687,1.837,2.082,4.146,2.161,5.467c1.552-1.119,5.083-3.327,8.759-3.327
		c1.217,0,2.354,0.247,3.38,0.733c4.539,2.149,6.653,5.88,6.652,7.726c0,0.144-0.013,0.271-0.034,0.384c0.013,0,0.026,0,0.039,0.001
		c2.579,0.047,9.431,0.172,9.943,5.518c0.073,0.766-0.144,1.433-0.643,1.982c-1.046,1.151-3.353,1.735-6.855,1.735
		c-1.793,0-3.453-0.152-4.384-0.257c0.253,0.989,0.536,2.73-0.146,4.026c-0.401,0.76-1.063,1.259-1.97,1.483
		c-0.578,0.143-1.251,0.215-2,0.215c-2.841,0-6.339-1.004-9.15-1.811c-1.081-0.311-2.047-0.587-2.766-0.743
		c-0.117,0.743-0.496,2.059-1.708,3.297c-1.9,1.941-5.044,2.926-9.347,2.927c0,0-0.001,0-0.002,0c-0.35,0-0.709-0.007-1.082-0.021
		c-9.27-0.337-11.926-2.601-12.683-3.773C35.755,60.017,29.54,64.071,24.607,64.071z"/>
	<path style="fill:#FFFFFF;" d="M52.254,31.055c9.534,0,8.793,8.63,8.793,8.63s4.565-3.837,9.257-3.837
		c1.066,0,2.139,0.198,3.166,0.684c5.547,2.626,7.134,7.506,6.043,8.022c-1.091,0.517,9.667-1.128,10.273,5.202
		c0.249,2.599-3.586,3.17-7,3.17c-2.672,0-5.086-0.349-5.086-0.349s1.795,4.793-1.534,5.616c-0.566,0.14-1.201,0.201-1.881,0.201
		c-4.193,0-10.105-2.315-12.362-2.646c0,0,0.138,6.316-10.607,6.316c-0.345,0-0.698-0.006-1.066-0.02
		c-11.822-0.431-12.502-4.029-12.502-4.029s-7.535,5.557-13.142,5.557c-12.37,0-10.912-6.12-10.912-6.72
		c0-0.05-0.089-0.071-0.251-0.071c-0.91,0-4.14,0.668-7.081,0.668C3.549,57.447,1,56.836,1,54.444c0-5.339,7.784-8.956,9.057-8.956
		c1.273,0-1.446-5.146,5.092-7.616c0.867-0.327,1.792-0.459,2.716-0.459c3.73,0,7.469,2.133,7.469,2.133
		c0-0.296-0.515-4.512,5.036-6.704c0.773-0.305,1.475-0.438,2.117-0.438c4.213,0,5.86,5.696,8.119,5.696
		c0.131,0,0.264-0.019,0.4-0.06C43.139,37.404,41.007,31.055,52.254,31.055 M52.254,30.055c-8.665,0-10.107,3.705-10.968,5.918
		c-0.165,0.424-0.414,1.064-0.565,1.109c-0.04,0.012-0.078,0.018-0.114,0.018c-0.486,0-1.294-0.973-2.008-1.832
		c-1.43-1.721-3.21-3.864-6.112-3.864c-0.796,0-1.632,0.171-2.484,0.507c-4.037,1.594-5.256,4.204-5.577,6.073
		c-1.502-0.667-4.01-1.571-6.56-1.571c-1.119,0-2.152,0.176-3.071,0.523c-5.156,1.948-5.261,5.557-5.311,7.291
		c-0.003,0.108-0.007,0.233-0.012,0.348C6.953,45.191,0,49.001,0,54.444c0,1.826,1.104,4.004,6.362,4.004
		c1.957,0,3.988-0.279,5.47-0.482c0.285-0.039,0.563-0.077,0.81-0.109c0.021,0.947,0.269,2.339,1.435,3.626
		c1.857,2.049,5.4,3.088,10.529,3.088c4.75,0,10.601-3.615,12.828-5.117c1.164,1.361,4.306,3.28,12.78,3.588
		c0.38,0.014,0.746,0.02,1.102,0.02c4.441,0,7.706-1.035,9.703-3.077c1.051-1.074,1.522-2.214,1.733-3.045
		c0.631,0.157,1.402,0.379,2.244,0.621c2.841,0.816,6.377,1.831,9.289,1.831c0.79,0,1.503-0.077,2.121-0.23
		c1.036-0.256,1.828-0.856,2.292-1.735c0.618-1.173,0.543-2.617,0.345-3.69c0.969,0.093,2.315,0.188,3.743,0.188
		c3.701,0,6.064-0.621,7.226-1.899c0.59-0.649,0.856-1.467,0.77-2.366c-0.522-5.446-7.131-5.889-9.947-5.96
		c-0.072-2.058-2.232-5.845-6.936-8.072c-1.094-0.518-2.303-0.781-3.594-0.781c-3.328,0-6.525,1.731-8.349,2.937
		c-0.198-1.411-0.747-3.328-2.203-4.915C58.039,31.002,55.516,30.055,52.254,30.055L52.254,30.055z"/>
</g>
<polyline style="fill:#B6382A;stroke:#FFFFFF;stroke-width:2;stroke-linecap:round;stroke-linejoin:round;stroke-miterlimit:10;" points="
	54.367,42.478 44.693,1 35.019,42.478 "/>
<line style="fill:#136390;stroke:#FFFFFF;stroke-width:1.6114;stroke-miterlimit:10;" x1="41.079" y1="18.107" x2="48.307" y2="18.107"/>
<line style="fill:#136390;stroke:#FFFFFF;stroke-width:1.6114;stroke-miterlimit:10;" x1="39.073" y1="26.129" x2="50.178" y2="26.129"/>
<line style="fill:#136390;stroke:#FFFFFF;stroke-width:1.6114;stroke-miterlimit:10;" x1="37.049" y1="33.997" x2="52.013" y2="33.997"/>
</svg>
