<?xml version="1.0" encoding="utf-8"?>
<!-- Generator: Adobe Illustrator 17.0.0, SVG Export Plug-In . SVG Version: 6.00 Build 0)  -->
<!DOCTYPE svg PUBLIC "-//W3C//DTD SVG 1.1//EN" "http://www.w3.org/Graphics/SVG/1.1/DTD/svg11.dtd">
<svg version="1.1" xmlns="http://www.w3.org/2000/svg" xmlns:xlink="http://www.w3.org/1999/xlink" x="0px" y="0px"
	 width="130.394px" height="130.394px" viewBox="0 3 130.394 130.394" enable-background="new 0 3 130.394 130.394"
	 xml:space="preserve">
<g id="レイヤー_2">
	<g>
		<circle fill="#FFFFFF" cx="64.566" cy="67.822" r="62.362"/>
	</g>
</g>
<g id="レイヤー_1">
	<g>
		<ellipse fill="#FFFFFF" cx="64.641" cy="84.378" rx="33.147" ry="33.081"/>
		<g>
			<path fill="#B6382A" d="M65.4,45.727c-9.364,0-23.224,4.597-28.405,4.597c0,0,5.015,4.407,2.615,6.807
				c-7.005,7.006-12.085,19.254-12.085,27.418c0,21.441,16.957,38.822,37.875,38.822c20.918,0,37.875-17.381,37.875-38.822
				S86.318,45.727,65.4,45.727z M65.4,118.117c-16.829,0-30.471-14.506-30.471-32.4s13.643-32.4,30.471-32.4
				s30.471,14.506,30.471,32.4S82.229,118.117,65.4,118.117z"/>
			<ellipse fill="#B6382A" cx="84.833" cy="86.266" rx="4.818" ry="8.222"/>
			<ellipse fill="#B6382A" cx="66.444" cy="86.266" rx="7.881" ry="12.587"/>
		</g>
		<g>
			<path fill="#B6382A" d="M47.225,66.217c-4.355,0-7.343-0.86-8.88-2.556c-1.143-1.261-1.177-2.66-1.129-3.364
				c-0.319,0.026-0.745,0.085-1.216,0.149c-1.283,0.176-3.041,0.417-4.722,0.417c-3.4,0-5.124-1.031-5.124-3.062
				c0-4.831,6.602-8.113,8.247-8.262c0.029-0.142,0.037-0.423,0.044-0.656c0.045-1.53,0.128-4.378,4.36-5.977
				c0.754-0.285,1.605-0.429,2.529-0.429c2.501,0,4.964,1.035,6.1,1.587c0.113-1.542,0.91-4.067,4.671-5.553
				c0.694-0.274,1.371-0.413,2.011-0.413c2.331,0,3.815,1.785,5.006,3.22c0.752,0.905,1.462,1.759,2.091,1.759
				c0.074,0,0.148-0.011,0.225-0.034c0.321-0.096,0.496-0.509,0.776-1.23c0.712-1.83,1.906-4.894,9.181-4.894
				c2.724,0,4.821,0.781,6.233,2.318c1.475,1.606,1.82,3.624,1.889,4.779c1.357-0.978,4.443-2.908,7.657-2.908
				c1.064,0,2.058,0.216,2.955,0.641c3.968,1.879,5.816,5.14,5.815,6.754c0,0.126-0.011,0.237-0.03,0.336
				c0.011,0,0.023,0,0.034,0.001c2.254,0.041,8.244,0.15,8.692,4.824c0.064,0.67-0.126,1.253-0.562,1.733
				c-0.914,1.006-2.931,1.517-5.992,1.517c-1.567,0-3.018-0.133-3.832-0.225c0.221,0.865,0.469,2.386-0.128,3.519
				c-0.351,0.664-0.929,1.101-1.722,1.296c-0.505,0.125-1.094,0.188-1.748,0.188c-2.483,0-5.541-0.878-7.998-1.583
				c-0.945-0.272-1.789-0.513-2.418-0.649c-0.102,0.649-0.434,1.8-1.493,2.882c-1.661,1.697-4.409,2.558-8.171,2.559
				c0,0-0.001,0-0.002,0c-0.306,0-0.62-0.006-0.946-0.018c-8.103-0.295-10.425-2.274-11.087-3.298
				C56.97,62.673,51.537,66.217,47.225,66.217z"/>
			<path fill="#FFFFFF" d="M71.392,37.356c8.334,0,7.686,7.544,7.686,7.544s3.99-3.354,8.092-3.354c0.932,0,1.87,0.173,2.768,0.598
				c4.849,2.295,6.236,6.561,5.282,7.012c-0.954,0.452,8.45-0.986,8.98,4.547c0.218,2.272-3.135,2.771-6.119,2.771
				c-2.336,0-4.446-0.305-4.446-0.305s1.569,4.19-1.341,4.909c-0.495,0.122-1.05,0.176-1.644,0.176
				c-3.665,0-8.833-2.024-10.806-2.313c0,0,0.121,5.521-9.272,5.521c-0.302,0-0.61-0.005-0.932-0.017
				c-10.334-0.377-10.929-3.522-10.929-3.522s-6.587,4.858-11.488,4.858c-10.813,0-9.539-5.35-9.539-5.874
				c0-0.044-0.078-0.062-0.219-0.062c-0.795,0-3.619,0.584-6.19,0.584c-2.459-0.002-4.687-0.536-4.687-2.627
				c0-4.667,6.804-7.829,7.917-7.829c1.113,0-1.264-4.498,4.451-6.657c0.758-0.286,1.566-0.401,2.374-0.401
				c3.261,0,6.529,1.865,6.529,1.865c0-0.259-0.45-3.944,4.402-5.86c0.676-0.267,1.289-0.383,1.851-0.383
				c3.683,0,5.122,4.979,7.097,4.979c0.115,0,0.231-0.017,0.35-0.052C63.425,42.906,61.561,37.356,71.392,37.356 M71.392,36.482
				c-7.574,0-8.835,3.239-9.588,5.173c-0.144,0.371-0.362,0.93-0.494,0.969c-0.035,0.01-0.068,0.016-0.1,0.016
				c-0.425,0-1.131-0.851-1.755-1.601c-1.25-1.504-2.806-3.378-5.343-3.378c-0.696,0-1.427,0.149-2.171,0.443
				c-3.529,1.393-4.594,3.675-4.875,5.309c-1.313-0.583-3.505-1.373-5.734-1.373c-0.978,0-1.881,0.154-2.684,0.457
				c-4.507,1.703-4.599,4.858-4.643,6.373c-0.003,0.094-0.006,0.204-0.01,0.304c-2.202,0.538-8.28,3.869-8.28,8.627
				c0,1.596,0.965,3.5,5.561,3.5c1.711,0,3.486-0.244,4.782-0.421c0.249-0.034,0.492-0.067,0.708-0.095
				c0.018,0.828,0.235,2.045,1.254,3.17c1.623,1.791,4.72,2.699,9.204,2.699c4.152,0,9.267-3.16,11.213-4.473
				c1.018,1.19,3.764,2.867,11.172,3.136c0.332,0.012,0.652,0.017,0.963,0.017c3.882,0,6.736-0.905,8.482-2.69
				c0.919-0.939,1.33-1.935,1.515-2.662c0.552,0.137,1.226,0.331,1.962,0.543c2.483,0.713,5.574,1.601,8.12,1.601
				c0.691,0,1.314-0.067,1.854-0.201c0.906-0.224,1.598-0.748,2.004-1.517c0.54-1.025,0.475-2.288,0.302-3.226
				c0.847,0.081,2.024,0.164,3.272,0.164c3.235,0,5.301-0.543,6.317-1.66c0.516-0.567,0.748-1.282,0.673-2.068
				c-0.456-4.761-6.233-5.148-8.695-5.21c-0.063-1.799-1.951-5.109-6.063-7.056c-0.956-0.453-2.013-0.683-3.142-0.683
				c-2.909,0-5.704,1.513-7.298,2.567c-0.173-1.233-0.653-2.909-1.926-4.296C76.449,37.31,74.244,36.482,71.392,36.482
				L71.392,36.482z"/>
		</g>
		
			<polyline fill="#B6382A" stroke="#FFFFFF" stroke-width="1.7483" stroke-linecap="round" stroke-linejoin="round" stroke-miterlimit="10" points="
			73.24,47.341 64.783,11.084 56.327,47.341 		"/>
		
			<line fill="none" stroke="#FFFFFF" stroke-width="1.4086" stroke-miterlimit="10" x1="61.624" y1="26.038" x2="67.942" y2="26.038"/>
		<line fill="none" stroke="#FFFFFF" stroke-width="1.4086" stroke-miterlimit="10" x1="59.87" y1="33.05" x2="69.578" y2="33.05"/>
		
			<line fill="none" stroke="#FFFFFF" stroke-width="1.4086" stroke-miterlimit="10" x1="58.101" y1="39.928" x2="71.182" y2="39.928"/>
	</g>
</g>
</svg>
