<?xml version="1.0" encoding="utf-8"?>
<!-- Generator: Adobe Illustrator 17.0.0, SVG Export Plug-In . SVG Version: 6.00 Build 0)  -->
<!DOCTYPE svg PUBLIC "-//W3C//DTD SVG 1.1//EN" "http://www.w3.org/Graphics/SVG/1.1/DTD/svg11.dtd">
<svg version="1.1" xmlns="http://www.w3.org/2000/svg" xmlns:xlink="http://www.w3.org/1999/xlink" x="0px" y="0px"
	 width="130.394px" height="130.394px" viewBox="0 0 130.394 130.394" enable-background="new 0 0 130.394 130.394"
	 xml:space="preserve">
<g id="レイヤー_2">
	<g>
		<circle fill="#FFFFFF" cx="64.566" cy="64.822" r="62.362"/>
	</g>
</g>
<g id="レイヤー_1">
	<g>
		<path fill="#33475B" d="M66.378,23.083c-10.22,0-38.045,5.204-43.701,5.204c0,0,18.173,4.987,15.554,7.703
			c-7.645,7.927-13.189,21.79-13.189,31.029c0,24.265,18.507,43.938,41.337,43.938s41.337-19.67,41.337-43.938
			C107.715,42.752,89.208,23.083,66.378,23.083z M66.378,105.01c-18.367,0-33.257-16.418-33.257-36.669s14.891-36.669,33.257-36.669
			S99.635,48.09,99.635,68.341S84.746,105.01,66.378,105.01z"/>
		<ellipse fill="#33475B" cx="87.588" cy="68.964" rx="5.258" ry="9.304"/>
		<ellipse fill="#33475B" cx="67.518" cy="68.964" rx="8.601" ry="14.245"/>
	</g>
</g>
</svg>
