<?xml version="1.0" encoding="iso-8859-1"?>
<!-- Generator: Adobe Illustrator 17.0.0, SVG Export Plug-In . SVG Version: 6.00 Build 0)  -->
<!DOCTYPE svg PUBLIC "-//W3C//DTD SVG 1.1//EN" "http://www.w3.org/Graphics/SVG/1.1/DTD/svg11.dtd">
<svg version="1.1" id="&#x30EC;&#x30A4;&#x30E4;&#x30FC;_1"
	 xmlns="http://www.w3.org/2000/svg" xmlns:xlink="http://www.w3.org/1999/xlink" x="0px" y="0px" width="84.043px"
	 height="83.75px" viewBox="0 0 84.043 83.75" style="enable-background:new 0 0 84.043 83.75;" xml:space="preserve">
<ellipse style="fill:#FFFFFF;" cx="44.021" cy="42.915" rx="37.215" ry="38.026"/>
<path style="fill:#33485C;" d="M43.189,0C33.089,0,5.589,4.959,0,4.959c0,0,17.96,4.754,15.371,7.342
	C7.815,19.858,2.336,33.069,2.336,41.875c0,23.127,18.291,41.875,40.854,41.875c22.563,0,40.854-18.748,40.854-41.875
	C84.043,18.748,65.752,0,43.189,0z M43.189,78.083c-18.152,0-32.867-15.647-32.867-34.948S25.037,8.186,43.189,8.186
	s32.867,15.647,32.867,34.948S61.341,78.083,43.189,78.083z"/>
<rect x="28.437" y="27.313" style="fill:#33485C;" width="8.603" height="31.204"/>
<rect x="49.353" y="27.313" style="fill:#33485C;" width="8.603" height="31.204"/>
</svg>
