<?xml version="1.0" encoding="iso-8859-1"?>
<!-- Generator: Adobe Illustrator 17.0.0, SVG Export Plug-In . SVG Version: 6.00 Build 0)  -->
<!DOCTYPE svg PUBLIC "-//W3C//DTD SVG 1.1//EN" "http://www.w3.org/Graphics/SVG/1.1/DTD/svg11.dtd">
<svg version="1.1" id="&#x30EC;&#x30A4;&#x30E4;&#x30FC;_1"
	 xmlns="http://www.w3.org/2000/svg" xmlns:xlink="http://www.w3.org/1999/xlink" x="0px" y="0px" width="94.667px" height="80px"
	 viewBox="0 0 94.667 80" style="enable-background:new 0 0 94.667 80;" xml:space="preserve">
<g>
	<ellipse style="fill:#FFFFFF;" cx="49.538" cy="41.242" rx="34.94" ry="34.87"/>
	<g>
		<path style="fill:#33485C;" d="M49.562,1.994c-9.215,0-34.306,4.524-39.405,4.524c0,0,16.386,4.337,14.024,6.699
			C17.287,20.112,12.288,32.165,12.288,40.2c0,21.101,16.689,38.207,37.274,38.207c20.586,0,37.274-17.106,37.274-38.207
			C86.837,19.099,70.149,1.994,49.562,1.994z M49.562,73.236c-16.562,0-29.988-14.276-29.988-31.887S33,9.462,49.562,9.462
			S79.55,23.739,79.55,41.349S66.124,73.236,49.562,73.236z"/>
		<ellipse style="fill:#33485C;" cx="68.687" cy="41.889" rx="4.742" ry="8.092"/>
		<ellipse style="fill:#33485C;" cx="50.59" cy="41.889" rx="7.756" ry="12.387"/>
	</g>
</g>
<g>
	<path style="fill:#33485C;" d="M5.938,74.773c-1.085,0-1.494-0.194-1.64-0.31c-0.366-0.288-0.386-0.546-0.363-0.737
		c0.083-0.693,0.906-1.578,2.101-2.508c-0.563,0.613-0.952,1.196-1.05,1.699c-0.077,0.394,0.002,0.755,0.227,1.045
		c0.26,0.337,0.748,0.486,1.579,0.486c2.922,0,10.206-1.944,17.315-4.038C17.062,72.693,9.569,74.773,5.938,74.773z"/>
	<path style="fill:#33485C;" d="M4.492,73.566c0.041,0.198,0.116,0.385,0.224,0.559c-0.076-0.029-0.107-0.052-0.11-0.055
		c-0.192-0.151-0.183-0.225-0.175-0.285C4.439,73.718,4.46,73.645,4.492,73.566 M40.204,65.046c-0.966,0-27.308,8.902-33.413,8.902
		c-0.618,0-1.028-0.091-1.184-0.292c-1.464-1.89,8.215-7.523,8.215-7.523s-13.237,6.044-9.834,8.723
		c0.365,0.287,1.037,0.417,1.949,0.417c7.592,0,31.824-8.949,34.156-10.126C40.229,65.079,40.262,65.046,40.204,65.046
		L40.204,65.046z M13.822,66.133h0.005H13.822z"/>
</g>
<g>
	<path style="fill:#33485C;" d="M11.726,58.564c0,0-12.566,7.097-9.282,9.79S95.506,37.394,92.7,37.063
		c-0.866-0.102-0.809,0.126-5.086,1.63C67.439,45.787,6.716,67.974,5.292,66.066C3.876,64.17,11.726,58.564,11.726,58.564z"/>
</g>
<g>
	<path style="fill:#33485C;" d="M63.277,24.242c1.564-0.388,3.378-0.803,5.095-1.196c9.699-2.221,16.624-3.946,17.392-5.936
		c0.687-1.779-2.004-3.915-4.736-5.552c3.394,1.125,7.022,2.697,7.684,4.316c0.154,0.379,0.115,0.728-0.123,1.099
		C86.863,19.655,72.396,22.664,63.277,24.242z"/>
	<path style="fill:#33485C;" d="M84.706,13.553c1.813,0.83,3.176,1.712,3.508,2.525c0.075,0.183,0.088,0.348-0.077,0.605
		c-0.333,0.518-1.285,1.077-2.684,1.652c0.408-0.332,0.675-0.673,0.813-1.032C86.74,16.074,85.999,14.776,84.706,13.553 M76.066,9.6
		c0,0,10.257,4.568,9.196,7.316c-1.293,3.351-28.833,7.258-26.462,8.598c0,0,27.6-4.145,30.24-8.25
		C91.681,13.159,76.066,9.6,76.066,9.6L76.066,9.6z"/>
</g>
<g>
	<path style="fill:#33485C;" d="M66.48,29.207c1.564-0.388,3.378-0.803,5.095-1.196c9.699-2.221,16.624-3.946,17.392-5.936
		c0.687-1.779-2.004-3.915-4.736-5.552c3.394,1.125,7.022,2.697,7.684,4.316c0.154,0.379,0.115,0.728-0.123,1.099
		C90.066,24.62,75.6,27.63,66.48,29.207z"/>
	<path style="fill:#33485C;" d="M87.909,18.518c1.813,0.83,3.176,1.712,3.508,2.525c0.075,0.183,0.088,0.348-0.077,0.605
		c-0.333,0.518-1.285,1.077-2.684,1.652c0.408-0.332,0.675-0.673,0.813-1.032C89.943,21.039,89.202,19.742,87.909,18.518
		 M79.269,14.565c0,0,10.257,4.568,9.196,7.316c-1.293,3.351-28.833,7.258-26.462,8.598c0,0,27.6-4.145,30.24-8.25
		C94.884,18.124,79.269,14.565,79.269,14.565L79.269,14.565z"/>
</g>
<g>
	<path style="fill:#33485C;" d="M2.725,61.044c-0.354,0-0.453-0.051-0.457-0.053c-0.261-0.216-0.377-0.473-0.349-0.797
		c0.097-1.119,1.638-2.664,3.514-4.141c-0.667,0.795-1.151,1.569-1.252,2.222c-0.066,0.423,0.019,0.807,0.246,1.11
		C4.633,59.663,4.994,59.7,5.286,59.7c4.884,0,43.01-13.61,68.239-22.616c4.203-1.5,7.99-2.853,11.12-3.961
		C64.579,41.271,9.84,61.044,2.725,61.044z"/>
	<path style="fill:#33485C;" d="M3.69,58.24c-0.095,0.681,0.133,1.158,0.344,1.44c0.381,0.51,1.036,0.51,1.252,0.51
		c0.013,0,0.027,0,0.04,0c-1.14,0.238-2.021,0.366-2.601,0.366c-0.101,0-0.171-0.005-0.216-0.01
		c-0.097-0.105-0.112-0.194-0.102-0.308C2.452,59.708,2.935,59.013,3.69,58.24 M91.924,30.07c-0.622,0-1.062,0.343-4.783,1.651
		C67.793,38.524,11.149,59.209,5.286,59.209c-0.25,0-0.408-0.038-0.467-0.116c-1.416-1.896,6.435-7.502,6.435-7.502
		s-12.566,7.097-9.282,9.79c0.126,0.104,0.381,0.153,0.753,0.153c9.299,0,92.201-31.126,89.503-31.444
		C92.114,30.078,92.017,30.07,91.924,30.07L91.924,30.07z M11.254,51.591h0.005H11.254z"/>
</g>
</svg>
