<?xml version="1.0" encoding="iso-8859-1"?>
<!-- Generator: Adobe Illustrator 17.0.0, SVG Export Plug-In . SVG Version: 6.00 Build 0)  -->
<!DOCTYPE svg PUBLIC "-//W3C//DTD SVG 1.1//EN" "http://www.w3.org/Graphics/SVG/1.1/DTD/svg11.dtd">
<svg version="1.1" id="&#x30EC;&#x30A4;&#x30E4;&#x30FC;_1"
	 xmlns="http://www.w3.org/2000/svg" xmlns:xlink="http://www.w3.org/1999/xlink" x="0px" y="0px" width="130.607px"
	 height="45.057px" viewBox="0 0 130.607 45.057" style="enable-background:new 0 0 130.607 45.057;" xml:space="preserve">
<ellipse style="fill:#FFFFFF;" cx="108.234" cy="23.525" rx="20.602" ry="20.561"/>
<g>
	<path style="fill:#33485C;" d="M108.628,0c-5.434,0-20.229,2.668-23.236,2.668c0,0,9.662,2.557,8.27,3.95
		c-4.065,4.065-7.013,11.173-7.013,15.91c0,12.442,9.84,22.529,21.979,22.529c12.139,0,21.979-10.086,21.979-22.529
		C130.607,10.086,120.767,0,108.628,0z M108.628,42.008c-9.766,0-17.683-8.418-17.683-18.802s7.917-18.802,17.683-18.802
		s17.683,8.418,17.683,18.802S118.394,42.008,108.628,42.008z"/>
	<ellipse style="fill:#33485C;" cx="119.905" cy="23.525" rx="2.796" ry="4.771"/>
	<ellipse style="fill:#33485C;" cx="109.234" cy="23.525" rx="4.573" ry="7.304"/>
</g>
<g>
	<g>
		<polyline style="fill:none;stroke:#33485C;stroke-width:5;stroke-miterlimit:10;" points="15.048,27.349 28.37,14.528 
			53.828,40.171 81.708,14.869 		"/>
		<g>
			<polygon style="fill:#33485C;" points="80.252,27.637 80.837,15.66 68.859,15.083 74.189,10.246 86.163,10.827 85.582,22.8 			
				"/>
		</g>
	</g>
</g>
<g>
	<g>
		<line style="fill:none;stroke:#33485C;stroke-width:5;stroke-miterlimit:10;" x1="1.727" y1="39.986" x2="3.173" y2="38.605"/>
		
			<line style="fill:none;stroke:#33485C;stroke-width:5;stroke-miterlimit:10;stroke-dasharray:3.65,3.65;" x1="5.812" y1="36.083" x2="25.604" y2="17.171"/>
		<line style="fill:none;stroke:#33485C;stroke-width:5;stroke-miterlimit:10;" x1="26.924" y1="15.91" x2="28.37" y2="14.528"/>
	</g>
</g>
</svg>
